<svg xmlns="http://www.w3.org/2000/svg" xmlns:xlink="http://www.w3.org/1999/xlink" version="1.1" id="Layer_2" x="0px" y="0px" width="1000px" height="1000px" viewBox="0 0 100 100" enable-background="new 0 0 100 100" xml:space="preserve">
<path d="M70.113,40.399h-42c-6.627,0-9,1.373-9,8v37.999c0,6.627,2.373,8,9,8h42c6.627,0,9-1.373,9-8V48.399  C79.113,41.772,76.74,40.399,70.113,40.399z M54.02,47.104l20.324,0.005l0.01,19.047L54.02,66.141V47.104z M49.04,44.917  c1.773-0.001,2.195,2.787,0,2.997c-0.618,0.001-1.478-0.414-1.499-1.413C47.519,45.459,48.04,44.917,49.04,44.917z M47.172,56.203  l3.734,0.016l0.016,6.821c-0.333,0-3.417-0.009-3.75-0.009V56.203z M23.688,47.125L44,47.109l0.031,19.014l-20.345,0.018  L23.688,47.125z M23.686,87.812l-0.014-14l50.682-0.08c0,0,0.037,9.093,0.037,14.058L23.686,87.812z"/>
<path d="M50.915,33.915c0-1.036-0.839-0.875-1.875-0.875l0,0c-1.036,0-1.875-0.161-1.875,0.875v5.25  c0,1.036,0.839,0.875,1.875,0.875l0,0c1.036,0,1.875,0.161,1.875-0.875V33.915z"/>
<path d="M49.977,20.127c0-3.107-0.42-2.625-0.938-2.625l0,0c-0.518,0-0.938-0.482-0.938,2.625v9.75c0,3.107,0.42,2.625,0.938,2.625  l0,0c0.518,0,0.938,0.482,0.938-2.625V20.127z"/>
<path d="M49.508,5.783c0-1.554-0.21-1.312-0.469-1.312l0,0c-0.259,0-0.469-0.241-0.469,1.312v9.875c0,1.554,0.21,1.312,0.469,1.312  l0,0c0.259,0,0.469,0.241,0.469-1.312V5.783z"/>
<polyline points="18.354,49.831 16.958,48.623 18.354,47.415 "/>
<polyline points="18.354,52.247 16.958,51.039 18.354,49.831 "/>
<polyline points="18.354,54.663 16.958,53.455 18.354,52.247 "/>
<polyline points="18.354,57.079 16.958,55.871 18.354,54.663 "/>
<polyline points="18.354,59.495 16.958,58.287 18.354,57.079 "/>
<polyline points="18.354,61.911 16.958,60.703 18.354,59.495 "/>
<polyline points="18.354,64.327 16.958,63.119 18.354,61.911 "/>
<polyline points="18.354,66.743 16.958,65.535 18.354,64.327 "/>
<polyline points="18.354,68.876 16.958,67.668 18.354,66.46 "/>
<polyline points="18.354,71.292 16.958,70.084 18.354,68.876 "/>
<polyline points="18.354,73.708 16.958,72.5 18.354,71.292 "/>
<polyline points="18.354,76.124 16.958,74.916 18.354,73.708 "/>
<polyline points="18.354,78.54 16.958,77.332 18.354,76.124 "/>
<polyline points="18.354,80.956 16.958,79.748 18.354,78.54 "/>
<polyline points="18.354,83.372 16.958,82.164 18.354,80.956 "/>
<polyline points="18.354,85.788 16.958,84.58 18.354,83.372 "/>
<polyline points="18.354,88.204 16.958,86.996 18.354,85.788 "/>
<polyline points="79.645,49.831 81.041,48.623 79.645,47.415 "/>
<polyline points="79.645,52.247 81.041,51.039 79.645,49.831 "/>
<polyline points="79.645,54.663 81.041,53.455 79.645,52.247 "/>
<polyline points="79.645,57.079 81.041,55.871 79.645,54.663 "/>
<polyline points="79.645,59.495 81.041,58.287 79.645,57.079 "/>
<polyline points="79.645,61.911 81.041,60.703 79.645,59.495 "/>
<polyline points="79.645,64.327 81.041,63.119 79.645,61.911 "/>
<polyline points="79.645,66.743 81.041,65.535 79.645,64.327 "/>
<polyline points="79.645,68.876 81.041,67.668 79.645,66.46 "/>
<polyline points="79.645,71.292 81.041,70.084 79.645,68.876 "/>
<polyline points="79.645,73.708 81.041,72.5 79.645,71.292 "/>
<polyline points="79.645,76.124 81.041,74.916 79.645,73.708 "/>
<polyline points="79.645,78.54 81.041,77.332 79.645,76.124 "/>
<polyline points="79.645,80.956 81.041,79.748 79.645,78.54 "/>
<polyline points="79.645,83.372 81.041,82.164 79.645,80.956 "/>
<polyline points="79.645,85.788 81.041,84.58 79.645,83.372 "/>
<polyline points="79.645,88.204 81.041,86.996 79.645,85.788 "/>
<polygon points="29.175,38.967 38.593,38.967 38.598,40.049 29.181,40.049 "/>
<polygon points="59.475,38.967 68.893,38.967 68.898,40.049 59.48,40.049 "/>
<path d="M24.145,74.206V87.29h49.75V74.206H24.145z M26,77.462 M24.685,86.792c0-1.18,0-11.003,0-12.183l48.659,0.031l0.007,12.15  L24.685,86.792z"/>
<rect x="47.999" y="57.394" width="2.082" height="4.412"/>
<rect x="25.353" y="75.124" width="47.333" height="11"/>
<circle cx="55.686" cy="48.79" r="0.5"/>
<circle cx="72.686" cy="64.456" r="0.5"/>
<circle cx="42.353" cy="64.457" r="0.5"/>
<circle cx="42.353" cy="48.79" r="0.5"/>
<circle cx="55.686" cy="64.456" r="0.5"/>
<circle cx="25.353" cy="48.79" r="0.5"/>
<circle cx="25.353" cy="64.456" r="0.5"/>
<path d="M33.886,47.623c-4.971,0-9,4.029-9,9c0,4.97,4.029,9,9,9c4.97,0,9-4.03,9-9C42.886,51.652,38.856,47.623,33.886,47.623z   M33.853,59.823c-4.665-0.417-3.853-6.4,0.034-6.4C37.781,53.423,38.438,59.623,33.853,59.823"/>
<path d="M64.188,47.623c-4.971,0-9,4.029-9,9c0,4.97,4.029,9,9,9c4.97,0,8.999-4.03,8.999-9  C73.187,51.652,69.157,47.623,64.188,47.623z M67.553,56.623c0,1.549-1.2,3.2-3.2,3.2c-4.431-0.292-4.087-6.276,0-6.4  C65.859,53.328,67.553,54.688,67.553,56.623z"/>
<circle cx="64.354" cy="56.623" r="3"/>
<circle cx="33.886" cy="56.623" r="3"/>
</svg>